<?xml version="1.0" encoding="UTF-8"?>
<svg id="Layer_1" data-name="Layer 1" xmlns="http://www.w3.org/2000/svg" viewBox="0 0 128 128">
  <defs>
    <style>
      .cls-1 {
        fill: #202020;
      }
    </style>
  </defs>
  <path class="cls-1" d="m83.36,127.92c2.32-.25,4.37-1.17,6.09-2.76,2.43-2.24,3.55-5.04,3.55-8.34,0-34.71,0-69.42,0-104.13h0s0,0,0,0c0-.17,0-.34,0-.51,0-.64,0-1.28-.03-1.92-.17-1.7-.69-4.03-2.19-6.05-.41-.5-.83-1-1.34-1.41-.07-.06-.13-.14-.19-.22-.18-.15-.37-.3-.58-.45-.36-.2-.68-.46-1.04-.66-1.11-.61-2.43-1.1-4.02-1.37-.8-.11-1.6-.12-2.39-.07-2.59.16-4.86,1.1-6.76,2.88-2.37,2.22-3.48,4.98-3.48,8.22,0,25.48,0,50.96,0,76.44,0,9.82-.01,19.63,0,29.45,0,3.65,1.47,6.63,4.38,8.84,2.36,1.78,5.06,2.39,7.98,2.07Zm-4.69-7.61c-.87-.95-1.3-2.06-1.3-3.36,0-9.1,0-18.2,0-27.3,0-26.15,0-52.3,0-78.44,0-1.14.25-2.17.95-3.09,1.41-1.86,4.46-2.32,6.34-.96,1.31.95,1.96,2.22,1.96,3.84,0,35.31,0,70.63,0,105.94,0,2.04-1.02,3.61-2.79,4.34-1.72.71-3.86.31-5.16-.98Z"/>
  <path class="cls-1" d="m47.37,127.92c2.32-.25,4.37-1.17,6.09-2.76,2.43-2.24,3.55-5.04,3.55-8.34,0-34.71,0-69.42,0-104.13h0s0,0,0,0c0-.17,0-.34,0-.51,0-.64,0-1.28-.03-1.92-.17-1.7-.69-4.03-2.19-6.05-.41-.5-.83-1-1.34-1.41-.07-.06-.13-.14-.19-.22-.18-.15-.37-.3-.58-.45-.36-.2-.68-.46-1.04-.66-1.11-.61-2.43-1.1-4.02-1.37-.8-.11-1.6-.12-2.39-.07-2.59.16-4.86,1.1-6.76,2.88-2.37,2.22-3.48,4.98-3.48,8.22,0,25.48,0,50.96,0,76.44,0,9.82-.01,19.63,0,29.45,0,3.65,1.47,6.63,4.38,8.84,2.36,1.78,5.06,2.39,7.98,2.07Zm-4.69-7.61c-.87-.95-1.3-2.06-1.3-3.36,0-9.1,0-18.2,0-27.3,0-26.15,0-52.3,0-78.44,0-1.14.25-2.17.95-3.09,1.41-1.86,4.46-2.32,6.34-.96,1.31.95,1.96,2.22,1.96,3.84,0,35.31,0,70.63,0,105.94,0,2.04-1.02,3.61-2.79,4.34-1.72.71-3.86.31-5.16-.98Z"/>
</svg>