<?xml version="1.0" encoding="UTF-8"?>
<svg id="Layer_1" data-name="Layer 1" xmlns="http://www.w3.org/2000/svg" viewBox="0 0 128 128">
  <defs>
    <style>
      .cls-1 {
        fill: #f8f8f8;
      }
    </style>
  </defs>
  <path class="cls-1" d="m128,113.42c0,8.52-7.36,15.29-15.88,14.52-3.27-.29-6.17-1.57-8.5-3.9-11.76-11.71-23.48-23.46-35.21-35.2-1.74-1.74-1.74-4.32-.05-6.01,1.69-1.68,4.25-1.65,6,.1,11.58,11.58,23.16,23.16,34.74,34.74,1.96,1.96,4.54,2.47,6.87,1.37,4-1.88,4.89-6.81,1.77-9.93-11.56-11.57-23.13-23.13-34.69-34.7-1.34-1.34-1.82-2.9-1.12-4.68,1.13-2.88,4.7-3.58,6.93-1.37,3.31,3.29,6.61,6.6,9.91,9.9,8.33,8.33,16.65,16.65,24.98,24.98,2.78,2.78,4.25,6.31,4.25,10.16Z"/>
  <path class="cls-1" d="m.05,15.88C.05,6.14,7.53-.73,15.86.06c3.52.33,6.51,1.8,9.01,4.31,10.07,10.08,20.15,20.16,30.23,30.24,1.47,1.47,2.96,2.93,4.41,4.43,1.23,1.26,1.52,3.08.82,4.63-.71,1.56-2.29,2.55-4.01,2.47-1.17-.05-2.13-.56-2.96-1.39-4.81-4.83-9.64-9.65-14.46-14.47-6.68-6.68-13.36-13.37-20.05-20.04-1.76-1.76-3.88-2.31-6.22-1.45-4.2,1.54-5.72,6.69-2.38,10.04,11.3,11.31,22.6,22.61,33.9,33.91.31.31.63.61.93.93,1.64,1.74,1.62,4.25-.05,5.91-1.65,1.65-4.21,1.66-5.91-.02-3.06-3.02-6.08-6.07-9.12-9.11-8.59-8.59-17.19-17.17-25.76-25.77C1.45,21.88.09,18.48.05,15.88Z"/>
  <path class="cls-1" d="m127.58,12.48c-.54-3.86-2.49-6.93-5.5-9.35-2.4-1.93-5.15-2.98-8.22-3.1-4.34-.17-8,1.39-11.06,4.45C70.51,36.78,38.22,69.07,5.93,101.36h0s0,0,0,0c-.16.16-.32.32-.47.47-.59.59-1.19,1.18-1.76,1.81-1.43,1.74-3.1,4.39-3.59,7.67-.08.85-.16,1.7-.06,2.55.01.12,0,.25-.03.38.03.31.07.63.12.95.15.52.21,1.06.35,1.58.46,1.6,1.24,3.28,2.47,5.02.65.85,1.37,1.6,2.15,2.29,2.56,2.26,5.54,3.5,8.96,3.61,4.27.14,7.87-1.4,10.88-4.41,23.7-23.71,47.4-47.41,71.11-71.12,9.13-9.13,18.27-18.25,27.39-27.4,3.39-3.4,4.8-7.53,4.14-12.3Zm-10.13,6.44c-8.47,8.46-16.93,16.93-25.4,25.39-24.32,24.33-48.65,48.65-72.97,72.98-1.06,1.06-2.25,1.78-3.75,1.99-3.03.42-6.31-1.98-6.79-5.01-.34-2.1.25-3.89,1.75-5.4C43.14,76.02,75.99,43.17,108.84,10.32c1.89-1.89,4.3-2.41,6.63-1.44,2.27.94,3.88,3.31,3.89,5.71-.07,1.7-.7,3.13-1.91,4.34Z"/>
</svg>